<svg width="84" height="23" viewBox="0 0 84 23" fill="none" xmlns="http://www.w3.org/2000/svg">
<path d="M5.22835 0.0823574C5.21419 0.131916 5.20711 0.585033 5.21419 1.09479L5.23543 2.00811L7.41606 2.02935L9.58961 2.04351V7.33932C9.58961 13.1874 9.58961 13.1732 9.13649 14.1219C8.69045 15.0636 8.15238 15.4671 7.0833 15.6724C6.04255 15.8707 4.56992 15.7645 3.81236 15.4317C3.6212 15.3468 3.35924 15.1768 3.2318 15.0494C2.73621 14.575 2.35389 13.4918 2.25477 12.267C2.22645 11.9413 2.17689 11.6723 2.14857 11.6723C1.90077 11.6723 0.0599817 11.9059 0.017502 11.9484C-0.0462177 12.005 0.0741416 13.1449 0.215741 13.7962C0.463539 14.9503 1.01578 15.9627 1.70961 16.5291C2.20521 16.9327 3.07604 17.3504 3.85484 17.5628C4.39292 17.7044 4.60532 17.7256 5.94343 17.7185C7.65678 17.7185 8.1099 17.6265 9.15773 17.1167C10.6162 16.3946 11.5508 14.8724 11.7844 12.8192C11.834 12.359 11.8552 10.1288 11.841 6.07908L11.8198 0.0257168L8.54177 0.00447655C5.89387 -0.00968361 5.25667 0.00447655 5.22835 0.0823574Z" fill="black"/>
<path d="M42.228 2.823V4.45139H41.2014H40.1748V5.33638V6.22138H41.2014H42.2209L42.2422 10.9083C42.2634 15.574 42.2634 15.6023 42.4262 16.0838C42.6386 16.7139 42.9289 16.9971 43.5519 17.2024C43.9626 17.3298 44.2458 17.3652 45.4352 17.3936L46.83 17.4219V16.5015V15.5811L45.9308 15.5528C45.3857 15.5315 44.9467 15.489 44.8405 15.4324C44.4511 15.2412 44.4582 15.312 44.4369 10.5897L44.4157 6.22138H45.6264H46.83V5.33638V4.45139H45.6264H44.4228V2.823V1.1946H43.3254H42.228V2.823Z" fill="black"/>
<path d="M73.3809 5.85264V10.1643L74.5632 11.1626L75.7385 12.168H79.8732H84.0008V10.8936V9.61918H79.9652H75.9296V5.5836V1.54803H74.6553H73.3809V5.85264Z" fill="black"/>
<path d="M31.8915 4.37327C30.3552 4.7131 29.1374 5.50606 28.6631 6.47602C28.1179 7.58757 28.3445 9.2372 29.1374 10.0372C29.7605 10.6603 30.78 11.1275 32.1818 11.4249C32.6633 11.5311 33.4279 11.6939 33.8739 11.7931C35.3112 12.1046 36.1466 12.5577 36.4298 13.1878C36.6139 13.5843 36.6068 14.2852 36.4227 14.6392C36.0404 15.3968 34.9926 15.8499 33.619 15.8499C32.55 15.8499 31.757 15.5808 31.2048 15.0215C30.8862 14.7029 30.4401 13.8817 30.3623 13.4639L30.3198 13.2303H29.1516H27.9834L28.033 13.5631C28.1675 14.4764 28.6418 15.3472 29.449 16.1685C29.9162 16.6499 30.1286 16.8057 30.6879 17.0747C31.7287 17.5916 32.0615 17.6553 33.5907 17.6553C34.7306 17.6553 34.9784 17.634 35.4882 17.4924C37.4493 16.9614 38.5679 15.8286 38.7733 14.1719C38.8653 13.4639 38.752 12.6993 38.4688 12.1187C38.1219 11.4107 37.1095 10.6744 35.8917 10.2496C35.5448 10.1293 34.5678 9.88856 33.7252 9.71864C31.6013 9.29384 31.0986 9.08852 30.78 8.52212C30.5888 8.18229 30.5605 7.46013 30.7163 7.14861C31.1057 6.40522 32.5075 5.95918 33.881 6.14326C35.028 6.29194 35.6652 6.70965 36.1041 7.58049C36.2386 7.85661 36.3519 8.12565 36.3519 8.17521C36.3519 8.25309 36.5714 8.27432 37.4847 8.27432C38.7945 8.27432 38.7166 8.33096 38.4688 7.52385C38.2352 6.75921 37.9237 6.22822 37.3785 5.69014C36.7909 5.10958 36.182 4.73434 35.3961 4.47239C34.8934 4.30955 34.6952 4.28831 33.6615 4.26707C32.7199 4.24583 32.3801 4.26707 31.8915 4.37327Z" fill="black"/>
<path d="M48.097 4.41558C48.0758 4.43682 49.1024 7.38916 50.3768 10.9858L52.6919 17.5135L53.0955 17.5347L53.4919 17.556L53.4495 17.7825C53.3433 18.2923 52.9255 19.0145 52.5291 19.3755C51.814 20.034 50.8794 20.218 49.3926 19.9986C48.9537 19.9348 48.5714 19.8924 48.536 19.9136C48.4722 19.9561 48.1395 21.7827 48.189 21.8323C48.2528 21.896 49.7466 22.0801 50.2281 22.0801C51.7432 22.0801 53.3433 21.4146 54.0937 20.4588C54.2707 20.2393 54.5539 19.772 54.7238 19.4251C54.9716 18.9295 59.9843 4.98197 60.0834 4.52178C60.1046 4.42974 59.9347 4.41558 58.9577 4.39434L57.8178 4.38018L57.3647 5.77493C55.0424 12.9469 54.1504 15.6232 54.122 15.5524C54.1079 15.5028 53.2725 12.9752 52.2813 9.93795L50.4688 4.41558L49.3006 4.39434C48.6563 4.38726 48.1112 4.39434 48.097 4.41558Z" fill="black"/>
<path d="M15.0625 9.1729C15.0837 13.6545 15.0979 13.9377 15.2324 14.5537C15.6147 16.2245 16.5281 17.2441 17.9511 17.5839C18.6166 17.7397 19.9123 17.7255 20.5778 17.5556C21.6398 17.2795 22.5389 16.6635 23.1337 15.7785C23.2469 15.6157 23.254 15.644 23.254 16.5077V17.4069H24.3514H25.4488V10.9287V4.45057H24.3585H23.2611L23.2328 8.67731C23.2115 12.4863 23.1974 12.9536 23.0841 13.3359C22.7655 14.405 22.2203 15.1201 21.4274 15.5095C20.9884 15.7289 20.8964 15.7431 20.1318 15.7714C18.7582 15.8068 18.114 15.5165 17.7246 14.6882C17.2927 13.7678 17.2856 13.6899 17.2573 8.8543L17.229 4.45057H16.1316H15.0342L15.0625 9.1729Z" fill="black"/>
<path d="M62.1934 10.965V12.2394H66.2289H70.2645V16.275V20.3105H71.5389H72.8133V16.0413V11.765L71.5955 10.7314L70.3707 9.69769L66.2856 9.69061H62.1934V10.965Z" fill="black"/>
</svg>
